<mxfile host="app.diagrams.net" modified="2021-06-25T02:43:04.792Z" agent="5.0 (Windows NT 10.0; Win64; x64) AppleWebKit/537.36 (KHTML, like Gecko) Chrome/86.0.4240.198 Safari/537.36" etag="uld1SqcED0EmqMbSs-vm" version="14.8.0" type="github">
  <diagram name="Page-1" id="2a216829-ef6e-dabb-86c1-c78162f3ba2b">
    <mxGraphModel dx="1662" dy="1894" grid="1" gridSize="10" guides="1" tooltips="1" connect="1" arrows="1" fold="1" page="1" pageScale="1" pageWidth="850" pageHeight="1100" background="none" math="0" shadow="0">
      <root>
        <mxCell id="0" />
        <mxCell id="1" parent="0" />
        <mxCell id="HAOk8zJSba7MEDvWLUL2-4" style="edgeStyle=orthogonalEdgeStyle;rounded=0;orthogonalLoop=1;jettySize=auto;html=1;" parent="1" source="HAOk8zJSba7MEDvWLUL2-1" edge="1">
          <mxGeometry relative="1" as="geometry">
            <mxPoint x="300" y="180" as="targetPoint" />
          </mxGeometry>
        </mxCell>
        <mxCell id="HAOk8zJSba7MEDvWLUL2-1" value="&lt;pre style=&quot;background-color: #282c34 ; color: #bbbbbb ; font-family: &amp;#34;jetbrains mono&amp;#34; , monospace ; font-size: 10.5pt&quot;&gt;&lt;span style=&quot;color: #89ca78&quot;&gt;/saveUserFinish&lt;/span&gt;&lt;/pre&gt;" style="ellipse;shape=cloud;whiteSpace=wrap;html=1;" parent="1" vertex="1">
          <mxGeometry x="130" y="140" width="120" height="80" as="geometry" />
        </mxCell>
        <mxCell id="HAOk8zJSba7MEDvWLUL2-2" value="" style="shape=curlyBracket;whiteSpace=wrap;html=1;rounded=1;" parent="1" vertex="1">
          <mxGeometry x="70" y="170" width="20" height="290" as="geometry" />
        </mxCell>
        <mxCell id="HAOk8zJSba7MEDvWLUL2-3" value="牵头第壹次提交办结" style="text;html=1;strokeColor=none;fillColor=none;align=center;verticalAlign=middle;whiteSpace=wrap;rounded=0;" parent="1" vertex="1">
          <mxGeometry x="10" y="305" width="40" height="20" as="geometry" />
        </mxCell>
        <mxCell id="HAOk8zJSba7MEDvWLUL2-5" value="&lt;pre style=&quot;background-color: #282c34 ; color: #bbbbbb ; font-family: &amp;#34;jetbrains mono&amp;#34; , monospace ; font-size: 10.5pt&quot;&gt;&lt;span style=&quot;color: #e5c07b&quot;&gt;TaskReformKeyFeedbackExtendRspVo&lt;/span&gt;&lt;/pre&gt;" style="text;html=1;strokeColor=none;fillColor=none;align=center;verticalAlign=middle;whiteSpace=wrap;rounded=0;" parent="1" vertex="1">
          <mxGeometry x="385" y="170" width="40" height="20" as="geometry" />
        </mxCell>
        <mxCell id="HAOk8zJSba7MEDvWLUL2-7" value="" style="shape=curlyBracket;whiteSpace=wrap;html=1;rounded=1;" parent="1" vertex="1">
          <mxGeometry x="520" y="120" width="20" height="120" as="geometry" />
        </mxCell>
        <mxCell id="HAOk8zJSba7MEDvWLUL2-8" value="总体信息" style="text;html=1;strokeColor=none;fillColor=none;align=center;verticalAlign=middle;whiteSpace=wrap;rounded=0;" parent="1" vertex="1">
          <mxGeometry x="560" y="220" width="60" height="20" as="geometry" />
        </mxCell>
        <mxCell id="HAOk8zJSba7MEDvWLUL2-20" style="edgeStyle=orthogonalEdgeStyle;rounded=0;orthogonalLoop=1;jettySize=auto;html=1;entryX=0;entryY=0;entryDx=0;entryDy=52.5;entryPerimeter=0;" parent="1" source="HAOk8zJSba7MEDvWLUL2-9" target="HAOk8zJSba7MEDvWLUL2-17" edge="1">
          <mxGeometry relative="1" as="geometry">
            <Array as="points">
              <mxPoint x="600" y="62" />
            </Array>
          </mxGeometry>
        </mxCell>
        <mxCell id="HAOk8zJSba7MEDvWLUL2-9" value="参与反馈的部门列表" style="text;html=1;strokeColor=none;fillColor=none;align=center;verticalAlign=middle;whiteSpace=wrap;rounded=0;" parent="1" vertex="1">
          <mxGeometry x="540" y="130" width="100" height="20" as="geometry" />
        </mxCell>
        <mxCell id="HAOk8zJSba7MEDvWLUL2-11" value="" style="shape=curlyBracket;whiteSpace=wrap;html=1;rounded=1;size=0.5;" parent="1" vertex="1">
          <mxGeometry x="640" y="80" width="20" height="120" as="geometry" />
        </mxCell>
        <mxCell id="HAOk8zJSba7MEDvWLUL2-19" style="edgeStyle=orthogonalEdgeStyle;rounded=0;orthogonalLoop=1;jettySize=auto;html=1;entryX=0;entryY=0.5;entryDx=0;entryDy=0;entryPerimeter=0;" parent="1" source="HAOk8zJSba7MEDvWLUL2-12" target="HAOk8zJSba7MEDvWLUL2-16" edge="1">
          <mxGeometry relative="1" as="geometry" />
        </mxCell>
        <mxCell id="HAOk8zJSba7MEDvWLUL2-12" value="部门对措施的反馈列表" style="text;html=1;strokeColor=none;fillColor=none;align=center;verticalAlign=middle;whiteSpace=wrap;rounded=0;" parent="1" vertex="1">
          <mxGeometry x="660" y="180" width="70" height="20" as="geometry" />
        </mxCell>
        <mxCell id="HAOk8zJSba7MEDvWLUL2-13" value="部门对反馈的总体信息" style="text;html=1;strokeColor=none;fillColor=none;align=center;verticalAlign=middle;whiteSpace=wrap;rounded=0;" parent="1" vertex="1">
          <mxGeometry x="670" y="100" width="40" height="20" as="geometry" />
        </mxCell>
        <mxCell id="HAOk8zJSba7MEDvWLUL2-16" value="&lt;pre style=&quot;background-color: #282c34 ; color: #bbbbbb ; font-family: &amp;#34;jetbrains mono&amp;#34; , monospace ; font-size: 10.5pt&quot;&gt;&lt;span style=&quot;color: #89ca78&quot;&gt;t_task_reform_key_feedback_task_fill&lt;/span&gt;&lt;/pre&gt;" style="shape=cylinder3;whiteSpace=wrap;html=1;boundedLbl=1;backgroundOutline=1;size=15;" parent="1" vertex="1">
          <mxGeometry x="910" y="150" width="60" height="80" as="geometry" />
        </mxCell>
        <mxCell id="HAOk8zJSba7MEDvWLUL2-17" value="&lt;pre style=&quot;background-color: #282c34 ; color: #bbbbbb ; font-family: &amp;#34;jetbrains mono&amp;#34; , monospace ; font-size: 10.5pt&quot;&gt;&lt;span style=&quot;color: #89ca78&quot;&gt;t_task_reform_key_feedback_task_department&lt;/span&gt;&lt;/pre&gt;" style="shape=cylinder3;whiteSpace=wrap;html=1;boundedLbl=1;backgroundOutline=1;size=15;" parent="1" vertex="1">
          <mxGeometry x="960" y="10" width="60" height="80" as="geometry" />
        </mxCell>
        <mxCell id="HAOk8zJSba7MEDvWLUL2-25" style="edgeStyle=orthogonalEdgeStyle;rounded=0;orthogonalLoop=1;jettySize=auto;html=1;entryX=0;entryY=0.5;entryDx=0;entryDy=0;" parent="1" source="HAOk8zJSba7MEDvWLUL2-24" target="HAOk8zJSba7MEDvWLUL2-26" edge="1">
          <mxGeometry relative="1" as="geometry">
            <mxPoint x="1280" y="145" as="targetPoint" />
          </mxGeometry>
        </mxCell>
        <mxCell id="HAOk8zJSba7MEDvWLUL2-24" value="" style="swimlane;startSize=0;" parent="1" vertex="1">
          <mxGeometry x="280" width="900" height="290" as="geometry">
            <mxRectangle x="280" width="50" height="40" as="alternateBounds" />
          </mxGeometry>
        </mxCell>
        <mxCell id="HAOk8zJSba7MEDvWLUL2-33" value="&lt;pre style=&quot;background-color: #282c34 ; color: #bbbbbb ; font-family: &amp;#34;jetbrains mono&amp;#34; , monospace ; font-size: 10.5pt&quot;&gt;&lt;span style=&quot;color: #61afef&quot;&gt;setTaskInfoId&lt;/span&gt;&lt;span style=&quot;color: #d19a66&quot;&gt;(反馈任务的id&lt;/span&gt;&lt;span style=&quot;color: #d19a66&quot;&gt;)&lt;/span&gt;&lt;/pre&gt;&lt;pre style=&quot;background-color: #282c34 ; color: #bbbbbb ; font-family: &amp;#34;jetbrains mono&amp;#34; , monospace ; font-size: 10.5pt&quot;&gt;&lt;pre style=&quot;font-family: &amp;#34;jetbrains mono&amp;#34; , monospace ; font-size: 10.5pt&quot;&gt;&lt;span style=&quot;color: #61afef&quot;&gt;setTaskReformKeyId&lt;/span&gt;&lt;span style=&quot;color: #d19a66&quot;&gt;(&lt;/span&gt;&lt;span style=&quot;color: #d19a66&quot;&gt;)&lt;/span&gt;&lt;/pre&gt;&lt;/pre&gt;" style="text;html=1;strokeColor=none;fillColor=none;align=center;verticalAlign=middle;whiteSpace=wrap;rounded=0;" parent="HAOk8zJSba7MEDvWLUL2-24" vertex="1">
          <mxGeometry x="350" y="10" width="40" height="20" as="geometry" />
        </mxCell>
        <mxCell id="HAOk8zJSba7MEDvWLUL2-27" style="edgeStyle=orthogonalEdgeStyle;rounded=0;orthogonalLoop=1;jettySize=auto;html=1;entryX=0;entryY=0.625;entryDx=0;entryDy=0;entryPerimeter=0;" parent="1" source="HAOk8zJSba7MEDvWLUL2-26" target="HAOk8zJSba7MEDvWLUL2-28" edge="1">
          <mxGeometry relative="1" as="geometry">
            <mxPoint x="1510" y="145" as="targetPoint" />
          </mxGeometry>
        </mxCell>
        <mxCell id="HAOk8zJSba7MEDvWLUL2-26" value="&lt;pre style=&quot;background-color: #282c34 ; color: #bbbbbb ; font-family: &amp;#34;jetbrains mono&amp;#34; , monospace ; font-size: 10.5pt&quot;&gt;&lt;span style=&quot;color: #ef596f&quot;&gt;taskReformKeyService&lt;/span&gt;&lt;/pre&gt;" style="shape=step;perimeter=stepPerimeter;whiteSpace=wrap;html=1;fixedSize=1;" parent="1" vertex="1">
          <mxGeometry x="1275" y="105" width="120" height="80" as="geometry" />
        </mxCell>
        <mxCell id="HAOk8zJSba7MEDvWLUL2-28" value="&lt;pre style=&quot;background-color: #282c34 ; color: #bbbbbb ; font-family: &amp;#34;jetbrains mono&amp;#34; , monospace ; font-size: 10.5pt&quot;&gt;&lt;span style=&quot;color: #89ca78&quot;&gt;t_task_reform_key&lt;/span&gt;&lt;/pre&gt;" style="shape=cylinder3;whiteSpace=wrap;html=1;boundedLbl=1;backgroundOutline=1;size=15;" parent="1" vertex="1">
          <mxGeometry x="1570" y="100" width="60" height="80" as="geometry" />
        </mxCell>
        <mxCell id="HAOk8zJSba7MEDvWLUL2-32" style="edgeStyle=orthogonalEdgeStyle;rounded=0;orthogonalLoop=1;jettySize=auto;html=1;entryX=0;entryY=0.5;entryDx=0;entryDy=0;" parent="1" source="HAOk8zJSba7MEDvWLUL2-31" target="HAOk8zJSba7MEDvWLUL2-40" edge="1">
          <mxGeometry relative="1" as="geometry">
            <mxPoint x="345" y="420" as="targetPoint" />
          </mxGeometry>
        </mxCell>
        <mxCell id="HAOk8zJSba7MEDvWLUL2-31" value="&lt;pre style=&quot;background-color: #282c34 ; color: #bbbbbb ; font-family: &amp;#34;jetbrains mono&amp;#34; , monospace ; font-size: 10.5pt&quot;&gt;&lt;pre style=&quot;font-family: &amp;#34;jetbrains mono&amp;#34; , monospace ; font-size: 10.5pt&quot;&gt;&lt;span style=&quot;color: #89ca78&quot;&gt;/applyFinishTask2&lt;/span&gt;&lt;/pre&gt;&lt;/pre&gt;" style="ellipse;shape=cloud;whiteSpace=wrap;html=1;" parent="1" vertex="1">
          <mxGeometry x="130" y="380" width="120" height="80" as="geometry" />
        </mxCell>
        <mxCell id="HAOk8zJSba7MEDvWLUL2-37" style="edgeStyle=orthogonalEdgeStyle;rounded=0;orthogonalLoop=1;jettySize=auto;html=1;entryX=0.5;entryY=0;entryDx=0;entryDy=0;entryPerimeter=0;" parent="1" target="HAOk8zJSba7MEDvWLUL2-38" edge="1">
          <mxGeometry relative="1" as="geometry">
            <mxPoint x="405" y="530" as="targetPoint" />
            <mxPoint x="405" y="460" as="sourcePoint" />
          </mxGeometry>
        </mxCell>
        <mxCell id="b5QbuNJi9KJu7loBeT8T-2" style="edgeStyle=orthogonalEdgeStyle;rounded=0;orthogonalLoop=1;jettySize=auto;html=1;entryX=0.5;entryY=1;entryDx=0;entryDy=0;" edge="1" parent="1" source="HAOk8zJSba7MEDvWLUL2-38" target="b5QbuNJi9KJu7loBeT8T-1">
          <mxGeometry relative="1" as="geometry" />
        </mxCell>
        <mxCell id="HAOk8zJSba7MEDvWLUL2-38" value="&lt;pre style=&quot;background-color: #282c34 ; color: #bbbbbb ; font-family: &amp;#34;jetbrains mono&amp;#34; , monospace ; font-size: 10.5pt&quot;&gt;&lt;span style=&quot;color: #89ca78&quot;&gt;t_task_reform_key&lt;/span&gt;&lt;/pre&gt;" style="shape=cylinder3;whiteSpace=wrap;html=1;boundedLbl=1;backgroundOutline=1;size=15;" parent="1" vertex="1">
          <mxGeometry x="375" y="540" width="60" height="80" as="geometry" />
        </mxCell>
        <mxCell id="HAOk8zJSba7MEDvWLUL2-42" style="edgeStyle=orthogonalEdgeStyle;rounded=0;orthogonalLoop=1;jettySize=auto;html=1;entryX=0;entryY=0.75;entryDx=0;entryDy=0;" parent="1" source="HAOk8zJSba7MEDvWLUL2-39" target="HAOk8zJSba7MEDvWLUL2-41" edge="1">
          <mxGeometry relative="1" as="geometry" />
        </mxCell>
        <mxCell id="HAOk8zJSba7MEDvWLUL2-39" value="&lt;pre style=&quot;background-color: #282c34 ; color: #bbbbbb ; font-family: &amp;#34;jetbrains mono&amp;#34; , monospace ; font-size: 10.5pt&quot;&gt;&lt;span style=&quot;color: #e5c07b&quot;&gt;TaskSubmitApprovalBo&lt;/span&gt;&lt;/pre&gt;" style="text;html=1;strokeColor=none;fillColor=none;align=center;verticalAlign=middle;whiteSpace=wrap;rounded=0;" parent="1" vertex="1">
          <mxGeometry x="280" y="380" width="40" height="20" as="geometry" />
        </mxCell>
        <mxCell id="HAOk8zJSba7MEDvWLUL2-40" value="&lt;pre style=&quot;background-color: #282c34 ; color: #bbbbbb ; font-family: &amp;#34;jetbrains mono&amp;#34; , monospace ; font-size: 10.5pt&quot;&gt;&lt;span style=&quot;color: #ef596f&quot;&gt;taskReformKeyService&lt;/span&gt;&lt;/pre&gt;" style="shape=step;perimeter=stepPerimeter;whiteSpace=wrap;html=1;fixedSize=1;" parent="1" vertex="1">
          <mxGeometry x="375" y="380" width="120" height="80" as="geometry" />
        </mxCell>
        <mxCell id="HAOk8zJSba7MEDvWLUL2-41" value="feedbacktaskinfoid" style="text;html=1;strokeColor=none;fillColor=none;align=center;verticalAlign=middle;whiteSpace=wrap;rounded=0;" parent="1" vertex="1">
          <mxGeometry x="361" y="490" width="40" height="20" as="geometry" />
        </mxCell>
        <mxCell id="b5QbuNJi9KJu7loBeT8T-4" style="edgeStyle=orthogonalEdgeStyle;rounded=0;orthogonalLoop=1;jettySize=auto;html=1;entryX=0;entryY=0.5;entryDx=0;entryDy=0;" edge="1" parent="1" source="b5QbuNJi9KJu7loBeT8T-1" target="b5QbuNJi9KJu7loBeT8T-5">
          <mxGeometry relative="1" as="geometry">
            <mxPoint x="720" y="420" as="targetPoint" />
          </mxGeometry>
        </mxCell>
        <mxCell id="b5QbuNJi9KJu7loBeT8T-9" style="edgeStyle=orthogonalEdgeStyle;rounded=0;orthogonalLoop=1;jettySize=auto;html=1;exitX=1;exitY=1;exitDx=0;exitDy=0;" edge="1" parent="1" source="b5QbuNJi9KJu7loBeT8T-1">
          <mxGeometry relative="1" as="geometry">
            <mxPoint x="790" y="520" as="targetPoint" />
            <Array as="points">
              <mxPoint x="652" y="520" />
            </Array>
          </mxGeometry>
        </mxCell>
        <mxCell id="b5QbuNJi9KJu7loBeT8T-58" style="edgeStyle=orthogonalEdgeStyle;rounded=0;orthogonalLoop=1;jettySize=auto;html=1;exitX=1;exitY=1;exitDx=0;exitDy=0;entryX=0.5;entryY=0;entryDx=0;entryDy=0;curved=1;" edge="1" parent="1" source="b5QbuNJi9KJu7loBeT8T-1" target="b5QbuNJi9KJu7loBeT8T-47">
          <mxGeometry relative="1" as="geometry">
            <Array as="points">
              <mxPoint x="652" y="290" />
              <mxPoint x="2000" y="290" />
            </Array>
          </mxGeometry>
        </mxCell>
        <mxCell id="b5QbuNJi9KJu7loBeT8T-1" value="&lt;pre style=&quot;background-color: #282c34 ; color: #bbbbbb ; font-family: &amp;#34;jetbrains mono&amp;#34; , monospace ; font-size: 10.5pt&quot;&gt;&lt;span style=&quot;color: #e5c07b&quot;&gt;TaskReformKey&lt;/span&gt;&lt;/pre&gt;" style="ellipse;whiteSpace=wrap;html=1;" vertex="1" parent="1">
          <mxGeometry x="550" y="380" width="120" height="80" as="geometry" />
        </mxCell>
        <mxCell id="b5QbuNJi9KJu7loBeT8T-6" style="edgeStyle=orthogonalEdgeStyle;rounded=0;orthogonalLoop=1;jettySize=auto;html=1;entryX=0.5;entryY=0;entryDx=0;entryDy=0;entryPerimeter=0;" edge="1" parent="1" source="b5QbuNJi9KJu7loBeT8T-5" target="b5QbuNJi9KJu7loBeT8T-8">
          <mxGeometry relative="1" as="geometry">
            <mxPoint x="790" y="550" as="targetPoint" />
          </mxGeometry>
        </mxCell>
        <mxCell id="b5QbuNJi9KJu7loBeT8T-5" value="&lt;pre style=&quot;background-color: #282c34 ; color: #bbbbbb ; font-family: &amp;#34;jetbrains mono&amp;#34; , monospace ; font-size: 10.5pt&quot;&gt;&lt;span style=&quot;color: #ef596f&quot;&gt;taskReformKeyOrgService&lt;/span&gt;&lt;/pre&gt;" style="shape=step;perimeter=stepPerimeter;whiteSpace=wrap;html=1;fixedSize=1;" vertex="1" parent="1">
          <mxGeometry x="730" y="380" width="120" height="80" as="geometry" />
        </mxCell>
        <mxCell id="b5QbuNJi9KJu7loBeT8T-11" style="edgeStyle=orthogonalEdgeStyle;rounded=0;orthogonalLoop=1;jettySize=auto;html=1;entryX=0.5;entryY=1;entryDx=0;entryDy=0;" edge="1" parent="1" source="b5QbuNJi9KJu7loBeT8T-8" target="b5QbuNJi9KJu7loBeT8T-14">
          <mxGeometry relative="1" as="geometry">
            <mxPoint x="940" y="430" as="targetPoint" />
          </mxGeometry>
        </mxCell>
        <mxCell id="b5QbuNJi9KJu7loBeT8T-8" value="&lt;pre style=&quot;background-color: #282c34 ; color: #bbbbbb ; font-family: &amp;#34;jetbrains mono&amp;#34; , monospace ; font-size: 10.5pt&quot;&gt;&lt;span style=&quot;color: #89ca78&quot;&gt;t_task_reform_key_org&lt;/span&gt;&lt;/pre&gt;" style="shape=cylinder3;whiteSpace=wrap;html=1;boundedLbl=1;backgroundOutline=1;size=15;" vertex="1" parent="1">
          <mxGeometry x="760" y="550" width="60" height="80" as="geometry" />
        </mxCell>
        <mxCell id="b5QbuNJi9KJu7loBeT8T-10" value="&lt;pre style=&quot;background-color: #282c34 ; color: #bbbbbb ; font-family: &amp;#34;jetbrains mono&amp;#34; , monospace ; font-size: 10.5pt&quot;&gt;taskReformKeyId&lt;/pre&gt;" style="text;html=1;strokeColor=none;fillColor=none;align=center;verticalAlign=middle;whiteSpace=wrap;rounded=0;" vertex="1" parent="1">
          <mxGeometry x="690" y="500" width="40" height="20" as="geometry" />
        </mxCell>
        <mxCell id="b5QbuNJi9KJu7loBeT8T-13" value="orgtype=牵头" style="text;html=1;strokeColor=none;fillColor=none;align=center;verticalAlign=middle;whiteSpace=wrap;rounded=0;" vertex="1" parent="1">
          <mxGeometry x="670" y="480" width="80" height="20" as="geometry" />
        </mxCell>
        <mxCell id="b5QbuNJi9KJu7loBeT8T-14" value="&lt;pre style=&quot;background-color: #282c34 ; color: #bbbbbb ; font-family: &amp;#34;jetbrains mono&amp;#34; , monospace ; font-size: 10.5pt&quot;&gt;&lt;span style=&quot;color: #e5c07b&quot;&gt;TaskReformKeyOrg&lt;/span&gt;&lt;/pre&gt;" style="ellipse;whiteSpace=wrap;html=1;" vertex="1" parent="1">
          <mxGeometry x="900" y="380" width="120" height="80" as="geometry" />
        </mxCell>
        <mxCell id="b5QbuNJi9KJu7loBeT8T-16" style="edgeStyle=orthogonalEdgeStyle;rounded=0;orthogonalLoop=1;jettySize=auto;html=1;" edge="1" parent="1" source="b5QbuNJi9KJu7loBeT8T-15">
          <mxGeometry relative="1" as="geometry">
            <mxPoint x="1120" y="550" as="targetPoint" />
          </mxGeometry>
        </mxCell>
        <mxCell id="b5QbuNJi9KJu7loBeT8T-15" value="&lt;pre style=&quot;background-color: #282c34 ; color: #bbbbbb ; font-family: &amp;#34;jetbrains mono&amp;#34; , monospace ; font-size: 10.5pt&quot;&gt;&lt;span style=&quot;color: #ef596f&quot;&gt;taskTopicProcessService&lt;/span&gt;&lt;/pre&gt;" style="shape=step;perimeter=stepPerimeter;whiteSpace=wrap;html=1;fixedSize=1;" vertex="1" parent="1">
          <mxGeometry x="1060" y="380" width="120" height="80" as="geometry" />
        </mxCell>
        <mxCell id="b5QbuNJi9KJu7loBeT8T-21" style="edgeStyle=orthogonalEdgeStyle;rounded=0;orthogonalLoop=1;jettySize=auto;html=1;entryX=0.5;entryY=1;entryDx=0;entryDy=0;" edge="1" parent="1" source="b5QbuNJi9KJu7loBeT8T-17" target="b5QbuNJi9KJu7loBeT8T-22">
          <mxGeometry relative="1" as="geometry">
            <mxPoint x="1290" y="430" as="targetPoint" />
          </mxGeometry>
        </mxCell>
        <mxCell id="b5QbuNJi9KJu7loBeT8T-17" value="&lt;pre style=&quot;background-color: #282c34 ; color: #bbbbbb ; font-family: &amp;#34;jetbrains mono&amp;#34; , monospace ; font-size: 10.5pt&quot;&gt;&lt;span style=&quot;color: #89ca78&quot;&gt;t_task_topic_process&lt;/span&gt;&lt;/pre&gt;" style="shape=cylinder3;whiteSpace=wrap;html=1;boundedLbl=1;backgroundOutline=1;size=15;" vertex="1" parent="1">
          <mxGeometry x="1090" y="550" width="60" height="80" as="geometry" />
        </mxCell>
        <mxCell id="b5QbuNJi9KJu7loBeT8T-18" value="&lt;pre style=&quot;background-color: #282c34 ; color: #bbbbbb ; font-family: &amp;#34;jetbrains mono&amp;#34; , monospace ; font-size: 10.5pt&quot;&gt;&lt;span style=&quot;color: #61afef&quot;&gt;getById&lt;/span&gt;&lt;span style=&quot;color: #d19a66&quot;&gt;(&lt;/span&gt;&lt;span style=&quot;color: #89ca78&quot;&gt;&quot;FINISH_TASK&quot;&lt;/span&gt;&lt;span style=&quot;color: #d19a66&quot;&gt;)&lt;/span&gt;&lt;/pre&gt;" style="text;html=1;strokeColor=none;fillColor=none;align=center;verticalAlign=middle;whiteSpace=wrap;rounded=0;" vertex="1" parent="1">
          <mxGeometry x="1120" y="500" width="40" height="20" as="geometry" />
        </mxCell>
        <mxCell id="b5QbuNJi9KJu7loBeT8T-32" style="edgeStyle=orthogonalEdgeStyle;rounded=0;orthogonalLoop=1;jettySize=auto;html=1;exitX=1;exitY=1;exitDx=0;exitDy=0;" edge="1" parent="1" source="b5QbuNJi9KJu7loBeT8T-22">
          <mxGeometry relative="1" as="geometry">
            <mxPoint x="1450" y="520" as="targetPoint" />
            <Array as="points">
              <mxPoint x="1332" y="520" />
            </Array>
          </mxGeometry>
        </mxCell>
        <mxCell id="b5QbuNJi9KJu7loBeT8T-22" value="&lt;pre style=&quot;background-color: #282c34 ; color: #bbbbbb ; font-family: &amp;#34;jetbrains mono&amp;#34; , monospace ; font-size: 10.5pt&quot;&gt;finishProcess&lt;/pre&gt;" style="ellipse;whiteSpace=wrap;html=1;" vertex="1" parent="1">
          <mxGeometry x="1230" y="380" width="120" height="80" as="geometry" />
        </mxCell>
        <mxCell id="b5QbuNJi9KJu7loBeT8T-23" value="获取任务拓展信息" style="text;html=1;strokeColor=none;fillColor=none;align=center;verticalAlign=middle;whiteSpace=wrap;rounded=0;" vertex="1" parent="1">
          <mxGeometry x="405" y="320" width="40" height="20" as="geometry" />
        </mxCell>
        <mxCell id="b5QbuNJi9KJu7loBeT8T-24" value="获取任务牵头组织" style="text;html=1;strokeColor=none;fillColor=none;align=center;verticalAlign=middle;whiteSpace=wrap;rounded=0;" vertex="1" parent="1">
          <mxGeometry x="770" y="340" width="40" height="20" as="geometry" />
        </mxCell>
        <mxCell id="b5QbuNJi9KJu7loBeT8T-26" value="获取结束流程" style="text;html=1;strokeColor=none;fillColor=none;align=center;verticalAlign=middle;whiteSpace=wrap;rounded=0;" vertex="1" parent="1">
          <mxGeometry x="1100" y="340" width="40" height="20" as="geometry" />
        </mxCell>
        <mxCell id="b5QbuNJi9KJu7loBeT8T-29" style="edgeStyle=orthogonalEdgeStyle;rounded=0;orthogonalLoop=1;jettySize=auto;html=1;entryX=0.5;entryY=0;entryDx=0;entryDy=0;entryPerimeter=0;" edge="1" parent="1" source="b5QbuNJi9KJu7loBeT8T-28" target="b5QbuNJi9KJu7loBeT8T-30">
          <mxGeometry relative="1" as="geometry">
            <mxPoint x="1450" y="560" as="targetPoint" />
          </mxGeometry>
        </mxCell>
        <mxCell id="b5QbuNJi9KJu7loBeT8T-40" style="edgeStyle=orthogonalEdgeStyle;rounded=0;orthogonalLoop=1;jettySize=auto;html=1;entryX=0;entryY=0.5;entryDx=0;entryDy=0;" edge="1" parent="1" source="b5QbuNJi9KJu7loBeT8T-28" target="b5QbuNJi9KJu7loBeT8T-41">
          <mxGeometry relative="1" as="geometry">
            <mxPoint x="1600" y="420" as="targetPoint" />
          </mxGeometry>
        </mxCell>
        <mxCell id="b5QbuNJi9KJu7loBeT8T-28" value="&lt;pre style=&quot;background-color: #282c34 ; color: #bbbbbb ; font-family: &amp;#34;jetbrains mono&amp;#34; , monospace ; font-size: 10.5pt&quot;&gt;&lt;span style=&quot;color: #e5c07b&quot;&gt;TaskUserExecute&lt;/span&gt;&lt;/pre&gt;" style="ellipse;whiteSpace=wrap;html=1;" vertex="1" parent="1">
          <mxGeometry x="1390" y="380" width="120" height="80" as="geometry" />
        </mxCell>
        <mxCell id="b5QbuNJi9KJu7loBeT8T-30" value="&lt;pre style=&quot;background-color: #282c34 ; color: #bbbbbb ; font-family: &amp;#34;jetbrains mono&amp;#34; , monospace ; font-size: 10.5pt&quot;&gt;&lt;span style=&quot;color: #89ca78&quot;&gt;t_task_user_execute&lt;/span&gt;&lt;/pre&gt;" style="shape=cylinder3;whiteSpace=wrap;html=1;boundedLbl=1;backgroundOutline=1;size=15;" vertex="1" parent="1">
          <mxGeometry x="1420" y="560" width="60" height="80" as="geometry" />
        </mxCell>
        <mxCell id="b5QbuNJi9KJu7loBeT8T-33" value="&lt;pre style=&quot;background-color: #282c34 ; color: #bbbbbb ; font-family: &amp;#34;jetbrains mono&amp;#34; , monospace ; font-size: 10.5pt&quot;&gt;&lt;span style=&quot;color: #61afef&quot;&gt;TaskName&lt;/span&gt;&lt;/pre&gt;&lt;pre style=&quot;background-color: #282c34 ; color: #bbbbbb ; font-family: &amp;#34;jetbrains mono&amp;#34; , monospace ; font-size: 10.5pt&quot;&gt;&lt;pre style=&quot;font-family: &amp;#34;jetbrains mono&amp;#34; , monospace ; font-size: 10.5pt&quot;&gt;&lt;span style=&quot;color: #61afef&quot;&gt;Taskid&lt;/span&gt;&lt;/pre&gt;&lt;pre style=&quot;font-family: &amp;#34;jetbrains mono&amp;#34; , monospace ; font-size: 10.5pt&quot;&gt;&lt;span style=&quot;color: #61afef&quot;&gt;EndDate&lt;/span&gt;&lt;/pre&gt;&lt;/pre&gt;" style="text;html=1;strokeColor=none;fillColor=none;align=center;verticalAlign=middle;whiteSpace=wrap;rounded=0;" vertex="1" parent="1">
          <mxGeometry x="1510" y="500" width="40" height="20" as="geometry" />
        </mxCell>
        <mxCell id="b5QbuNJi9KJu7loBeT8T-35" style="edgeStyle=orthogonalEdgeStyle;rounded=0;orthogonalLoop=1;jettySize=auto;html=1;" edge="1" parent="1" source="b5QbuNJi9KJu7loBeT8T-34">
          <mxGeometry relative="1" as="geometry">
            <mxPoint x="1450" y="520" as="targetPoint" />
            <Array as="points">
              <mxPoint x="1310" y="540" />
              <mxPoint x="1450" y="540" />
            </Array>
          </mxGeometry>
        </mxCell>
        <mxCell id="b5QbuNJi9KJu7loBeT8T-34" value="当前用户（牵头）" style="text;html=1;strokeColor=none;fillColor=none;align=center;verticalAlign=middle;whiteSpace=wrap;rounded=0;" vertex="1" parent="1">
          <mxGeometry x="1290" y="650" width="40" height="20" as="geometry" />
        </mxCell>
        <mxCell id="b5QbuNJi9KJu7loBeT8T-36" value="userid&lt;br&gt;username&lt;br&gt;orgid&lt;br&gt;orgname" style="text;html=1;strokeColor=none;fillColor=none;align=center;verticalAlign=middle;whiteSpace=wrap;rounded=0;" vertex="1" parent="1">
          <mxGeometry x="1330" y="550" width="40" height="20" as="geometry" />
        </mxCell>
        <mxCell id="b5QbuNJi9KJu7loBeT8T-37" value="&lt;pre style=&quot;background-color: #282c34 ; color: #bbbbbb ; font-family: &amp;#34;jetbrains mono&amp;#34; , monospace ; font-size: 10.5pt&quot;&gt;&lt;span style=&quot;color: #61afef&quot;&gt;Workid&lt;/span&gt;&lt;/pre&gt;&lt;pre style=&quot;background-color: #282c34 ; color: #bbbbbb ; font-family: &amp;#34;jetbrains mono&amp;#34; , monospace ; font-size: 10.5pt&quot;&gt;&lt;pre style=&quot;font-family: &amp;#34;jetbrains mono&amp;#34; , monospace ; font-size: 10.5pt&quot;&gt;&lt;span style=&quot;color: #61afef&quot;&gt;WorkName&lt;/span&gt;&lt;/pre&gt;&lt;/pre&gt;" style="text;html=1;strokeColor=none;fillColor=none;align=center;verticalAlign=middle;whiteSpace=wrap;rounded=0;" vertex="1" parent="1">
          <mxGeometry x="1355" y="490" width="40" height="20" as="geometry" />
        </mxCell>
        <mxCell id="b5QbuNJi9KJu7loBeT8T-39" value="创建反馈任务的执行" style="text;html=1;strokeColor=none;fillColor=none;align=center;verticalAlign=middle;whiteSpace=wrap;rounded=0;" vertex="1" parent="1">
          <mxGeometry x="1430" y="350" width="40" height="20" as="geometry" />
        </mxCell>
        <mxCell id="b5QbuNJi9KJu7loBeT8T-42" style="edgeStyle=orthogonalEdgeStyle;rounded=0;orthogonalLoop=1;jettySize=auto;html=1;" edge="1" parent="1" source="b5QbuNJi9KJu7loBeT8T-41">
          <mxGeometry relative="1" as="geometry">
            <mxPoint x="1720" y="580" as="targetPoint" />
          </mxGeometry>
        </mxCell>
        <mxCell id="b5QbuNJi9KJu7loBeT8T-46" style="edgeStyle=orthogonalEdgeStyle;rounded=0;orthogonalLoop=1;jettySize=auto;html=1;entryX=0;entryY=0.5;entryDx=0;entryDy=0;" edge="1" parent="1" source="b5QbuNJi9KJu7loBeT8T-41" target="b5QbuNJi9KJu7loBeT8T-47">
          <mxGeometry relative="1" as="geometry">
            <mxPoint x="1940" y="420" as="targetPoint" />
          </mxGeometry>
        </mxCell>
        <mxCell id="b5QbuNJi9KJu7loBeT8T-41" value="&lt;pre style=&quot;background-color: #282c34 ; color: #bbbbbb ; font-family: &amp;#34;jetbrains mono&amp;#34; , monospace ; font-size: 10.5pt&quot;&gt;&lt;span style=&quot;color: #ef596f&quot;&gt;runtimeService&lt;/span&gt;&lt;/pre&gt;" style="shape=step;perimeter=stepPerimeter;whiteSpace=wrap;html=1;fixedSize=1;" vertex="1" parent="1">
          <mxGeometry x="1660" y="380" width="120" height="80" as="geometry" />
        </mxCell>
        <mxCell id="b5QbuNJi9KJu7loBeT8T-43" value="&lt;pre style=&quot;background-color: #282c34 ; color: #bbbbbb ; font-family: &amp;#34;jetbrains mono&amp;#34; , monospace ; font-size: 10.5pt&quot;&gt;&lt;span style=&quot;color: #61afef&quot;&gt;startProcessInstanceById&lt;/span&gt;&lt;/pre&gt;" style="text;html=1;strokeColor=none;fillColor=none;align=center;verticalAlign=middle;whiteSpace=wrap;rounded=0;" vertex="1" parent="1">
          <mxGeometry x="1740" y="490" width="40" height="20" as="geometry" />
        </mxCell>
        <mxCell id="b5QbuNJi9KJu7loBeT8T-44" value="param：folwLine：有无清单牵头&lt;br&gt;appravalUserid：清单牵头&lt;br&gt;userid：牵头id&lt;br&gt;createid：创建人（督察室）" style="text;html=1;strokeColor=none;fillColor=none;align=center;verticalAlign=middle;whiteSpace=wrap;rounded=0;" vertex="1" parent="1">
          <mxGeometry x="1710" y="530" width="220" height="20" as="geometry" />
        </mxCell>
        <mxCell id="b5QbuNJi9KJu7loBeT8T-48" style="edgeStyle=orthogonalEdgeStyle;rounded=0;orthogonalLoop=1;jettySize=auto;html=1;entryX=0.5;entryY=0;entryDx=0;entryDy=0;" edge="1" parent="1" source="b5QbuNJi9KJu7loBeT8T-47">
          <mxGeometry relative="1" as="geometry">
            <mxPoint x="2000" y="560" as="targetPoint" />
          </mxGeometry>
        </mxCell>
        <mxCell id="b5QbuNJi9KJu7loBeT8T-47" value="&lt;pre style=&quot;background-color: #282c34 ; color: #bbbbbb ; font-family: &amp;#34;jetbrains mono&amp;#34; , monospace ; font-size: 10.5pt&quot;&gt;&lt;span style=&quot;color: #ef596f&quot;&gt;taskReformKeyService&lt;/span&gt;&lt;/pre&gt;" style="shape=step;perimeter=stepPerimeter;whiteSpace=wrap;html=1;fixedSize=1;" vertex="1" parent="1">
          <mxGeometry x="1940" y="380" width="120" height="80" as="geometry" />
        </mxCell>
        <mxCell id="b5QbuNJi9KJu7loBeT8T-49" value="开启流程" style="text;html=1;strokeColor=none;fillColor=none;align=center;verticalAlign=middle;whiteSpace=wrap;rounded=0;" vertex="1" parent="1">
          <mxGeometry x="1700" y="350" width="40" height="20" as="geometry" />
        </mxCell>
        <mxCell id="b5QbuNJi9KJu7loBeT8T-50" value="更新完成状态" style="text;html=1;strokeColor=none;fillColor=none;align=center;verticalAlign=middle;whiteSpace=wrap;rounded=0;" vertex="1" parent="1">
          <mxGeometry x="1980" y="340" width="40" height="20" as="geometry" />
        </mxCell>
        <mxCell id="b5QbuNJi9KJu7loBeT8T-52" value="&lt;pre style=&quot;background-color: #282c34 ; color: #bbbbbb ; font-family: &amp;#34;jetbrains mono&amp;#34; , monospace ; font-size: 10.5pt&quot;&gt;&lt;span style=&quot;color: #61afef&quot;&gt;CompleteStatus&lt;/span&gt;&lt;span style=&quot;color: #d19a66&quot;&gt;(1)&lt;/span&gt;&lt;/pre&gt;" style="text;html=1;strokeColor=none;fillColor=none;align=center;verticalAlign=middle;whiteSpace=wrap;rounded=0;" vertex="1" parent="1">
          <mxGeometry x="2000" y="510" width="40" height="20" as="geometry" />
        </mxCell>
        <mxCell id="b5QbuNJi9KJu7loBeT8T-54" value="&lt;pre style=&quot;background-color: #282c34 ; color: #bbbbbb ; font-family: &amp;#34;jetbrains mono&amp;#34; , monospace ; font-size: 10.5pt&quot;&gt;&lt;span style=&quot;color: #89ca78&quot;&gt;t_task_reform_key&lt;/span&gt;&lt;/pre&gt;" style="shape=cylinder3;whiteSpace=wrap;html=1;boundedLbl=1;backgroundOutline=1;size=15;" vertex="1" parent="1">
          <mxGeometry x="1970" y="560" width="60" height="80" as="geometry" />
        </mxCell>
        <mxCell id="b5QbuNJi9KJu7loBeT8T-57" value="updateByid" style="text;html=1;strokeColor=none;fillColor=none;align=center;verticalAlign=middle;whiteSpace=wrap;rounded=0;" vertex="1" parent="1">
          <mxGeometry x="2020" y="470" width="40" height="20" as="geometry" />
        </mxCell>
        <mxCell id="b5QbuNJi9KJu7loBeT8T-59" value="新建一条数据，结束任务中使用" style="text;html=1;strokeColor=none;fillColor=none;align=center;verticalAlign=middle;whiteSpace=wrap;rounded=0;" vertex="1" parent="1">
          <mxGeometry x="100" y="110" width="160" height="20" as="geometry" />
        </mxCell>
      </root>
    </mxGraphModel>
  </diagram>
</mxfile>
